<svg id="Layer_1" data-name="Layer 1" xmlns="http://www.w3.org/2000/svg" viewBox="0 0 145.47 52.55"><defs><style>.cls-1{stroke:#000;stroke-miterlimit:10;stroke-width:5px;}</style></defs><title>logo</title><path class="cls-1" d="M63.7,20.33a1.33,1.33,0,0,1,.33.86c0,.62-.25.93-.76.93a.61.61,0,0,1-.4-.16,16.54,16.54,0,0,0-1.63-1.2q-5.33,19.6-12.86,28.18a2.78,2.78,0,0,1-2.16.89,5.92,5.92,0,0,1-2.7-.71,18,18,0,0,1-6-2.61A7.69,7.69,0,0,1,34.9,40.6q-.09-1.14-.09-2.46a69.86,69.86,0,0,1,2.43-17.81,90.63,90.63,0,0,0-7.5,9.45,63.33,63.33,0,0,0-6.68,11.16,45.3,45.3,0,0,1-2.74,5.72,5.35,5.35,0,0,1-2.12,1.63,9.7,9.7,0,0,1-3.38,1.23c-.43,0-.65-.18-.65-.55a3.16,3.16,0,0,1,.37-1.23,118,118,0,0,0,6.37-18.38q3.19-11.67,3.2-16.72A6,6,0,0,0,24,11.32a42.29,42.29,0,0,0-7.66,2.83,54.16,54.16,0,0,0-7.2,3.9,3.34,3.34,0,0,0-1.56,2.87,6.49,6.49,0,0,0,.61,2.55,1.26,1.26,0,0,1,.16.52.46.46,0,0,1-.53.52,1.4,1.4,0,0,1-1.07-.64Q3,19.22,3.1,17.87q.09-1.61,3.87-3.6a54.77,54.77,0,0,1,8-3.17,65,65,0,0,0,6.89-2.49c.1-.31.2-.61.31-.92a1,1,0,0,1,1-.71c.74,0,1.9.59,3.48,1.75a4.29,4.29,0,0,1,1.94,3.57c0,.35-.05,1-.16,2.09a81.45,81.45,0,0,1-2.09,9.45q-1.76,6.68-3.08,10.61,2.69-3.9,8.68-11.75,5.78-7.6,6.77-8.55c.65-2.42,1.08-3.87,1.29-4.34.47-1.07,1.11-1.6,1.91-1.6a3.12,3.12,0,0,1,.89.15c2.25.7,3.38,1.38,3.38,2a2.21,2.21,0,0,1-.74,1.35L43.3,14l0,0q-4.22,13.74-4.21,23c0,.87,0,1.72.06,2.56a10.47,10.47,0,0,0,1.54,5.26,3.76,3.76,0,0,0,3.19,2q2.16,0,3.91-2.46a64.53,64.53,0,0,0,6.31-11.72,64.23,64.23,0,0,0,4.77-15A6.83,6.83,0,0,1,57.39,13a24,24,0,0,1,1-6.18c.34-1.34.89-2,1.63-2s1.49.57,2.46,1.72a4.73,4.73,0,0,1,1.07,3.05,76.79,76.79,0,0,1-1.78,8.67C62.08,18.59,62.71,19.27,63.7,20.33Z" transform="translate(-0.59 -1.77)"/><path class="cls-1" d="M142.63,7.92a3.25,3.25,0,0,1,.93,2.09c0,1-.86,2.44-2.57,4.35s-6.42,5.84-14.11,11.77q2.46,11.88,5.05,15.93,1.88,3,3.23,3A9.54,9.54,0,0,0,137.87,44a1.86,1.86,0,0,1,.83-.21c.51,0,.77.18.77.55a1.17,1.17,0,0,1-.5.8q-5.13,4.34-7.66,4.34-3.78,0-8-20.61Q112.46,37.45,108.9,42c-2.36,3-3.55,5.37-3.55,7a4.08,4.08,0,0,0,.28,1.26c.14.39.15.62,0,.7-.37.27-.82.08-1.34-.57l-1.58-1.92a3.67,3.67,0,0,1-.8-2.18,5.37,5.37,0,0,1,1.32-3.14q4.21-5.45,19.59-17.13-1.38-7.32-2-13.82c-1.8,1-3.6,2-5.41,2.93a16.47,16.47,0,0,0-4.92,3.78,3.32,3.32,0,0,0-.74,2.12,8.76,8.76,0,0,0,1,3.29,1.15,1.15,0,0,1,.09.44c0,.49-.22.73-.65.73a1,1,0,0,1-.77-.49c-2.21-2.93-3.32-5.13-3.32-6.58a4.44,4.44,0,0,1,2.18-3.48A24.82,24.82,0,0,1,114.18,12a43.9,43.9,0,0,0,6.21-2.74c.17-1.31,1.18-2.51,3-3.6a3.14,3.14,0,0,1,1.41-.49c.45,0,.89.48,1.3,1.45a2.26,2.26,0,0,1,.18.83c0,.53-.46,1.13-1.38,1.81a11.18,11.18,0,0,0-.1,1.66,74.38,74.38,0,0,0,1.48,12.46,102.86,102.86,0,0,0,10.34-8.7c-1.79-.6-2.68-1.25-2.68-1.94a.68.68,0,0,1,.34-.53,2.45,2.45,0,0,0,1.26-.3,14.89,14.89,0,0,0,4.15-4.53c.41-.69.73-1,1-1S141.71,6.85,142.63,7.92Z" transform="translate(-0.59 -1.77)"/><path class="cls-1" d="M90,20.63a74.32,74.32,0,0,1-4.46,15.5q-4.92,12.27-9,12.15A10.62,10.62,0,0,1,72,46.89a1.14,1.14,0,0,0-.49-.12q-1,0-1,1.08a.87.87,0,0,0,.34.71q4.37,3.28,7.41,3.26,5.05-.07,10.43-13a76,76,0,0,0,5.66-19.93l0-.32Z" transform="translate(-0.59 -1.77)"/><path class="cls-1" d="M93.43,7Q89.92,4.7,88.72,4.7a.78.78,0,0,0-.64.28q-3.45-1.05-4.56-.55a16.38,16.38,0,0,0-5.41,4.43,27.48,27.48,0,0,0-4.77,7.29,10.69,10.69,0,0,0-1.11,4,3.81,3.81,0,0,0,1.17,2.74A20.17,20.17,0,0,0,77,25.41a1.43,1.43,0,0,0,.62.12c.61,0,.92-.2.92-.59a.93.93,0,0,0-.34-.61l-1.41-1.42a3.26,3.26,0,0,1-.77-2.09,4.58,4.58,0,0,1,.18-1.23A22.68,22.68,0,0,1,81,10.76C83,8.45,84.85,7.17,86.45,7a7,7,0,0,1,1.07-.09q3.11,0,3,3c0,.51-.06,1-.1,1.56l4-1.9A3.29,3.29,0,0,0,93.43,7Z" transform="translate(-0.59 -1.77)"/></svg>